<svg xmlns="http://www.w3.org/2000/svg" viewBox="0 0 800 800" fill="currentColor">
  <path d="M400 200c-110.5 0-200 89.5-200 200s89.5 200 200 200 200-89.5 200-200-89.5-200-200-200zm0 330c-71.8 0-130-58.2-130-130s58.2-130 130-130 130 58.2 130 130-58.2 130-130 130z"/>
  <circle cx="610" cy="190" r="40"/>
  <path d="M550 100H250C175 100 100 175 100 250v300c0 75 75 150 150 150h300c75 0 150-75 150-150V250c0-75-75-150-150-150zm80 450c0 44.2-35.8 80-80 80H250c-44.2 0-80-35.8-80-80V250c0-44.2 35.8-80 80-80h300c44.2 0 80 35.8 80 80v300z"/>
</svg>